<svg id="Capa_1" xmlns="http://www.w3.org/2000/svg" viewBox="725.24 169.35 469.52 741.29">
  <defs>
    <style>
      .cls-1 {
        fill: #ffffff;fff;
      }
    </style>
  </defs>
  <g>
    <path class="cls-1" d="M1085.92,591.23c1.42-.73,2.85-1.45,4.3-2.13,38.35-17.96,65.05-47.06,81.54-85.76,8.53-20.04,13.68-40.96,15.14-62.73.62-9.17.78-18.29.39-27.34-.91-21.3-4.86-42.19-13.06-62.31-22.03-54.06-62.19-88.34-117.75-104.86-10.2-3.03-20.48-5.18-30.81-6.65-.09-.02-.17-.03-.26-.04h-.01c-8.1-1.15-16.23-1.88-24.39-2.3h0c-9.3-.48-18.63-.55-27.98-.35-8.32.17-16.65.55-24.99,1.03h-.01c-.27.02-.53.03-.8.05-5.54.32-11.04.86-16.48,1.61-20.58,2.85-40.45,8.78-59.38,18.02-14.32,6.99-27.29,15.31-38.86,25.07-18.46,15.53-33.32,34.68-44.27,57.79-14.35,30.29-18.99,62.26-17.01,95.45,2.25,37.61,15.14,71.24,38.21,100.86,20.98,26.95,48.29,45.63,79.5,58.91,27.58,11.73,56.56,16.06,86.32,16.14,4.22,0,8.44,0,12.66,0-.44,1.78-1.41,2.36-2.11,3.17-6.23,7.29-13.28,14.05-18.43,22.04-9.74,15.11-16.79,31.63-22.54,48.71-3.57,10.61-7.36,21.22-12.1,31.33-2.56,5.47-6.55,10.89-11.25,14.62-9.29,7.39-21.55,2.02-23.41-9.67-.52-3.27-.48-6.73-.09-10.03,2.24-18.86,10.26-35.62,19.65-51.75,4.1-7.04,9.17-13.52,13.72-20.3,3.97-5.92,1.84-11.81-4.79-12.68-32.62-4.26-62.18-15.97-88.49-35.85-20.42-15.43-36.75-34.28-48.14-57.22-6.1-12.29-20-19.64-33.49-16.99-13.88,2.73-23.51,13.68-23.87,28.06-.21,8.46.04,17.02,1.1,25.41,6.33,50.2,29.04,91.73,67.18,124.84,3,2.6,3.62,4.86,2.79,8.64-7.43,33.8-6.69,67.23,6.27,99.66,16.4,41.04,45.14,66.86,90.65,70.28,30.11,2.27,57.17-5.87,79.84-26.48,15.05-13.68,26.43-30.22,34.67-48.63,8.43-18.84,15.43-38.31,23.39-57.37,2.69-6.45,5.92-12.81,9.81-18.6,3.53-5.25,9.3-7.36,15.68-6.12,5.84,1.12,8.32,5.82,9.6,10.93,1.16,4.64,2.2,9.47,2.14,14.2-.09,8.64-.44,17.35-1.71,25.88-4.65,31.01-13.94,60.6-29.33,88.02-8.73,15.54-.92,36.6,15.01,43.96,10.43,4.82,20.84,4.46,31.37,1.05,12.25-3.96,22.98-10.73,32.4-19.34,36.6-33.39,55.52-75.35,59.01-124.41,2.49-35.08-3.19-68.72-20.18-99.89-13.25-24.33-31.19-44.21-56.52-56.5-6.6-3.2-13.54-5.68-20.68-8.64.39-.37.59-.65.86-.79ZM1064.3,512.9c-12.21,5.47-24.82,8.29-38.23,8.1-15.55-.23-31.1-.06-46.66-.06v-.04c-16.83,0-33.67.06-50.51,0-36.65-.15-69.62-23.45-80.41-58.42-5.51-17.85-4.89-34.26.87-49.2,4.53-11.74,12.23-22.57,22.63-32.46,16.05-15.26,35.9-21.95,57.88-22.07,32.71-.17,65.43-.13,98.14-.04,36.51.11,67.97,21.93,79.54,54.57.43,1.22.83,2.45,1.21,3.7,11.49,38.19-7.71,79.43-44.46,95.93Z"/>
    <path class="cls-1" d="M1040.83,443.02c0,6.25.09,12.5-.02,18.75-.22,11.83-8.5,19.99-20.11,19.96-10.89-.03-19.33-8.8-19.37-20.22-.04-12.51-.05-25.01,0-37.52.02-4.05,1.07-7.7,2.92-10.72,3.32-5.43,9.23-8.84,16.37-8.9,7.3-.06,13.53,3.4,17.06,8.9,1.93,2.98,3.06,6.56,3.15,10.51.14,6.41.02,12.82.02,19.24h-.02Z"/>
    <path class="cls-1" d="M954.9,442.88c0,6.25.07,12.51,0,18.75-.16,11.46-8.25,19.97-18.94,20.03-11.06.06-19.63-8.4-19.74-19.79-.11-12.82-.09-25.65.07-38.47.05-3.81,1.08-7.25,2.87-10.13,3.27-5.3,9.1-8.67,16.07-8.79,7.26-.13,13.41,3.26,16.8,8.79,1.64,2.68,2.64,5.88,2.79,9.42.3,6.72.06,13.46.06,20.19h.03Z"/>
  </g>
  <path class="cls-1" d="M960.03,239.06c-3.05-.04-6.1-.09-9.15-.13-2.04-.03-3.43-1.15-3.92-3.15-2.59-10.5-5.17-21.01-7.79-31.5-.19-.76-.62-1.51-1.12-2.12-1.16-1.41-2.43-2.73-3.65-4.08-.7-.78-.8-2.11-.19-3.04,1.29-1.98,2.58-3.95,3.87-5.92.73-1.1,2.32-1.24,3.15-.21,1.67,2.07,3.31,4.16,4.93,6.27.7.92.64,2.18-.03,3.11-.51.71-1.01,1.44-1.49,2.17-.68,1.06-.51,2.36.43,3.29,4.29,4.24,8.58,8.48,12.87,12.72,1.89,1.87,3.81,3.71,5.65,5.63.97,1.02,2.64,1.19,3.67-.35,4.2-6.31,8.5-12.55,12.76-18.82,1.16-1.7,2.32-3.39,3.47-5.1.75-1.11.71-2.6-.1-3.71-1.17-1.61-2.36-3.2-3.57-4.78-.94-1.24-.92-2.73.03-3.96,1.94-2.5,3.87-5.01,5.78-7.54,1.25-1.65,3.24-1.63,4.45.05,1.87,2.61,3.77,5.2,5.67,7.79.84,1.15.8,2.74-.1,3.86-1.25,1.55-2.5,3.1-3.72,4.66-.92,1.17-.95,2.62-.15,3.88,5.19,8.15,10.38,16.29,15.57,24.44.78,1.23,2.23,1.43,3.32.41,4.89-4.56,9.76-9.12,14.65-13.68,1.52-1.42,3.04-2.84,4.57-4.25,1.07-.98,1.24-2.26.45-3.49-.46-.72-.93-1.44-1.38-2.16-.6-.95-.51-2.2.19-3.05,1.62-1.96,3.24-3.92,4.86-5.88.98-1.18,2.56-1.07,3.36.23,1.2,1.95,2.39,3.9,3.58,5.86.66,1.09.5,2.32-.38,3.24-1.24,1.28-2.5,2.54-3.65,3.9-.52.62-.92,1.41-1.14,2.18-2.84,10.12-5.63,20.26-8.46,30.39-.23.81-.54,1.64-1.02,2.31-.72,1-1.8,1.46-3.07,1.44-6.2-.1-12.39-.19-18.59-.28-1.42-.02-2.46-.69-3.2-1.87-4.18-6.74-8.35-13.48-12.53-20.21-.75-1.2-2.4-1.25-3.18-.08-4.38,6.61-8.75,13.22-13.12,19.83-.8,1.21-1.88,1.85-3.36,1.82-3.07-.06-6.15-.09-9.22-.14h0Z"/>
</svg>